<svg xmlns="http://www.w3.org/2000/svg" fill="none" viewBox="0 0 1435 424"><path fill="#262F6E" d="M1434 413c1 6-4 11-10 11H6c-6 0-10-5-10-11L40 9c1-5 6-9 11-9l1352 58c5 1 9 5 9 10l22 345Z"/><g filter="url(#a)"><path fill="url(#b)" fill-opacity=".9" d="M1412 413c1 6-4 11-10 11H29c-6 0-10-4-10-10V16c0-5 5-10 10-10l1352 59c5 0 9 4 9 9l22 339Z"/></g><defs><linearGradient id="b" x1="1445.3" x2="16" y1="424" y2="16" gradientUnits="userSpaceOnUse"><stop stop-color="#C3112D" stop-opacity="0"/><stop offset="1" stop-color="#C3112D"/></linearGradient><filter id="a" width="1793.3" height="817.6" x="-181" y="-193.6" color-interpolation-filters="sRGB" filterUnits="userSpaceOnUse"><feFlood flood-opacity="0" result="BackgroundImageFix"/><feGaussianBlur in="BackgroundImage" stdDeviation="100"/><feComposite in2="SourceAlpha" operator="in" result="effect1_backgroundBlur_147_160"/><feBlend in="SourceGraphic" in2="effect1_backgroundBlur_147_160" result="shape"/></filter></defs></svg>