<svg xmlns="http://www.w3.org/2000/svg" fill="none" viewBox="2.87 30 1435.13 718"><path fill="#262F6E" d="M1426 98c0-6-4-10-10-10L14 59C9 59 4 64 4 69l10 612c0 5 4 9 10 9l1402 29c5 0 10-5 10-10l-10-611Z"></path><g filter="url(#a)"><path fill="url(#b)" d="M1438 127c0-5-5-10-10-10L29 30c-6 0-11 4-11 10L3 651c-1 5 4 10 9 10l1399 87c6 0 11-4 11-10l16-611Z"></path></g><defs><linearGradient id="b" x1="23.9" x2="1427.3" y1="30" y2="745.4" gradientUnits="userSpaceOnUse"><stop stop-color="#C3112D"></stop><stop offset="1" stop-color="#262F6E" stop-opacity="0"></stop></linearGradient><filter id="a" width="1635" height="917.8" x="-97.5" y="-69.8" color-interpolation-filters="sRGB" filterUnits="userSpaceOnUse"><feFlood flood-opacity="0" result="BackgroundImageFix"></feFlood><feGaussianBlur in="BackgroundImage" stdDeviation="50"></feGaussianBlur><feComposite in2="SourceAlpha" operator="in" result="effect1_backgroundBlur_197_92"></feComposite><feBlend in="SourceGraphic" in2="effect1_backgroundBlur_197_92" result="shape"></feBlend></filter></defs></svg>